<svg width="82" height="82" viewBox="0 0 82 82" fill="none" xmlns="http://www.w3.org/2000/svg">
<path d="M81 41C81 63.0914 63.0914 81 41 81C18.9086 81 1 63.0914 1 41C1 18.9086 18.9086 1 41 1C63.0914 1 81 18.9086 81 41Z" stroke="#3A95FF" stroke-width="2"/>
<path d="M52.514 33.3431L44.5141 25.3432C44.4135 25.2317 44.2898 25.1433 44.1517 25.0841C44.0136 25.0249 43.8643 24.9963 43.7141 25.0004H32.2857C31.6795 25.0004 31.0981 25.2412 30.6695 25.6698C30.2408 26.0985 30 26.6799 30 27.2861V54.7143C30 55.3205 30.2408 55.9019 30.6695 56.3305C31.0981 56.7592 31.6795 57 32.2857 57H50.5712C51.1774 57 51.7588 56.7592 52.1874 56.3305C52.6161 55.9019 52.8569 55.3205 52.8569 54.7143V34.1431C52.8609 33.9929 52.8323 33.8436 52.7732 33.7055C52.714 33.5674 52.6256 33.4438 52.514 33.3431ZM43.7141 27.7432L50.114 34.1431H43.7141V27.7432ZM50.5712 54.7143H32.2857V27.2861H41.4284V34.1431C41.4284 34.7493 41.6693 35.3307 42.0979 35.7593C42.5265 36.188 43.1079 36.4288 43.7141 36.4288H50.5712V54.7143Z" fill="#3A95FF"/>
<path d="M39.1427 48.0631L36.1828 45.1031L34.5714 46.7145L39.1427 51.2859L48.2855 42.1431L46.6741 40.5317L39.1427 48.0631Z" fill="#3A95FF"/>
</svg>
