<svg width="82" height="82" viewBox="0 0 82 82" fill="none" xmlns="http://www.w3.org/2000/svg">
<path d="M81 41C81 63.0914 63.0914 81 41 81C18.9086 81 1 63.0914 1 41C1 18.9086 18.9086 1 41 1C63.0914 1 81 18.9086 81 41Z" stroke="#3A95FF" stroke-width="2"/>
<path d="M39.5714 46.7143H54.6229L51.6743 49.6743L53.2857 51.2857L59 45.5715L53.2857 39.8572L51.6743 41.4686L54.6229 44.4286H39.5714V46.7143Z" fill="#3A95FF"/>
<path d="M49.8571 38.7143V34.1429C49.858 33.9925 49.8292 33.8434 49.7723 33.7041C49.7154 33.5649 49.6316 33.4382 49.5257 33.3314L41.5257 25.3314C41.4189 25.2255 41.2923 25.1417 41.153 25.0849C41.0138 25.028 40.8647 24.9991 40.7143 25H29.2857C28.6795 25 28.0981 25.2408 27.6695 25.6695C27.2408 26.0981 27 26.6795 27 27.2857V54.7143C27 55.3205 27.2408 55.9019 27.6695 56.3305C28.0981 56.7592 28.6795 57 29.2857 57H47.5714C48.1776 57 48.759 56.7592 49.1877 56.3305C49.6163 55.9019 49.8571 55.3205 49.8571 54.7143V52.4286H47.5714V54.7143H29.2857V27.2857H38.4286V34.1429C38.4286 34.7491 38.6694 35.3305 39.098 35.7591C39.5267 36.1878 40.1081 36.4286 40.7143 36.4286H47.5714V38.7143H49.8571ZM40.7143 34.1429V27.7543L47.1029 34.1429H40.7143Z" fill="#3A95FF"/>
</svg>
